Simulation
nRows=39
nColumns=15
endheader
time  TH_x TH_y TH_z SC_y  SC_z  SC_x  AC_y  AC_z  AC_x  GH_y  GH_z  GH_yy  EL_x  PS_y
8.045112781954886  0.000000  0.000000  0.000000  -22.197957767736266  7.767194672608912  15.010924720941484  55.90537518977203  16.04310062029267  8.284554988240998  42.79453381634352  52.43371957474778  -61.98085800867256  78.28361081214459  120.000000
8.085338345864661  0.000000  0.000000  0.000000  -21.901927434233095  7.70601568115775  14.743114021876751  55.91447023626924  15.781966890546451  7.929571441332649  43.2221986820651  52.48547440279763  -61.579713237766484  75.09421937865433  120.000000
8.125563909774437  0.000000  0.000000  0.000000  -21.603282478491135  7.639379796910347  14.468647125144146  55.931721599785966  15.508926254260102  7.57607315783644  43.64484739309402  52.526668760844906  -61.11320550051191  71.87677341742022  120.000000
8.16578947368421  0.000000  0.000000  0.000000  -21.30535189995962  7.567381325962715  14.19100874059336  55.95713208765885  15.225991791854916  7.2277363245014286  44.062130502917256  52.55786838386427  -60.585353781430804  68.66477839304312  120.000000
8.206015037593986  0.000000  0.000000  0.000000  -21.011185069812353  7.490123463178143  13.913624518678132  55.99112963588628  14.935276652566941  6.887917188849124  44.4740989781859  52.579875433679554  -60.00060087091327  65.49147033671564  120.000000
8.246240601503759  0.000000  0.000000  0.000000  -20.723676667715775  7.407708020346689  13.639766937806172  56.03462076925533  14.638958461402938  6.55962672223004  44.88125229116561  52.59357556980346  -59.36358011042035  62.39014249334058  120.000000
8.286466165413534  0.000000  0.000000  0.000000  -20.44556535763713  7.320145006862457  13.372566577461535  56.08881783843464  14.339412282683778  6.245495826153083  45.28422625107489  52.59970953844235  -58.679097105922416  59.39458056768352  120.000000
8.326691729323308  0.000000  0.000000  0.000000  -20.17946956377601  7.227374198746331  13.114999295882619  56.15502804579595  14.03936807007285  5.947746031804116  45.68334866974733  52.598592947877044  -57.95212674641277  56.53916417580613  120.000000
8.366917293233083  0.000000  0.000000  0.000000  -19.927608117075504  7.129167283049758  12.869700794213667  56.23438328097795  13.741999638016207  5.668081854591  46.078182663540254  52.58983398899516  -57.188018729712695  53.858223481459035  120.000000
8.407142857142857  0.000000  0.000000  0.000000  -19.69163104111252  7.0252619127366325  12.638684361005769  56.327527240169545  13.450782263571  5.407681499104542  46.46737800616973  52.572296491401595  -56.39315357728716  51.383523290015866  120.000000
8.447368421052632  0.000000  0.000000  0.000000  -19.472717904157655  6.91575421822236  12.42314923326505  56.434271581223015  13.169230958099494  5.167354972493308  46.848708639944284  52.544372275910334  -55.57571525509463  49.139793982560356  120.000000
8.487593984962405  0.000000  0.000000  0.000000  -19.271671758441528  6.801379478339118  12.223425232920416  56.55330725060124  12.90061343345311  4.947643557640833  47.21919757592501  52.5044173575005  -54.74635767057617  47.140409723225574  120.000000
8.52781954887218  0.000000  0.000000  0.000000  -19.088914255003317  6.683583817853729  12.038960282710535  56.682058504210964  12.64770604234579  4.748743953420814  47.57520545961567  52.450946351416626  -53.91846335015169  45.38619929070866  120.000000
8.568045112781954  0.000000  0.000000  0.000000  -18.92442285215496  6.564399546084031  11.868321451637284  56.8167074071468  12.412692659044312  4.570381425203419  47.912378509098566  52.38247004945205  -53.107770238004846  43.86791475659238  120.000000
8.60827067669173  0.000000  0.000000  0.000000  -18.777621760565232  6.446146194826392  11.709267595097678  56.952408148561155  12.1972885660713  4.411759876223148  48.22557738681051  52.29728764715094  -52.331722664912434  42.57008053392724  120.000000
8.648496240601503  0.000000  0.000000  0.000000  -18.647319112793607  6.331150779740446  11.558940304195223  57.08353603842229  12.003020244161359  4.271675597404234  48.50877197258261  52.19337632142323  -51.60879728637344  41.47429914280114  120.000000
8.688721804511278  0.000000  0.000000  0.000000  -18.531854480527244  6.221655386291293  11.414123135233455  57.2038908068235  11.831529293613668  4.148666589703901  48.754978827640194  52.06840623733028  -50.958009090354494  40.5614850123352  120.000000
8.728947368421052  0.000000  0.000000  0.000000  -18.429233766599157  6.11973095686887  11.271438465253436  57.30692507221772  11.684803897592909  4.041118003598425  48.9563039855598  51.91981694565468  -50.398644231621205  39.81297889384124  120.000000
8.769172932330827  0.000000  0.000000  0.000000  -18.337229071357942  6.0272528254348305  11.127394512077341  57.385918205257845  11.565169152597946  3.947392133316142  49.10433689508663  51.744943350742645  -49.95027587261648  39.210712191613325  120.000000
8.8093984962406  0.000000  0.000000  0.000000  -18.253819240069884  5.946044166753929  10.978403340719243  57.434173666506915  11.475048093105519  3.8659581096261983  49.190842516313936  51.54113143524474  -49.632852223955766  38.736850998340216  120.000000
8.849624060150376  0.000000  0.000000  0.000000  -18.177766985385446  5.877937711436113  10.820794067773575  57.445246181797664  11.416671855518546  3.795359086030819  49.20842916581492  51.30588672684756  -49.46658663092544  38.37337971851688  120.000000
8.889849624060151  0.000000  0.000000  0.000000  -18.10904012168741  5.824792588080619  10.650882986917935  57.41314664245261  11.391779122872663  3.7342051625666906  49.15106548630526  51.03696419967263  -49.47116197366258  38.101915346645626  120.000000
8.930075187969924  0.000000  0.000000  0.000000  -18.04904634814219  5.788577937515597  10.465217035129195  57.332637591197695  11.401287206906199  3.681275489670794  49.0144793195097  50.73235456881482  -49.663716930349075  37.90413555254676  120.000000
8.9703007518797  0.000000  0.000000  0.000000  -18.000344546948398  5.771103414230581  10.260904600930012  57.19981153310692  11.445150038161067  3.6355193582210568  48.79625070181876  50.39010495564003  -50.05550117764868  37.763268307819764  120.000000
9.010526315789473  0.000000  0.000000  0.000000  -17.965779646714502  5.773777589295034  10.035852260677618  57.01271065152484  11.522136616057507  3.5962754009228073  48.495811974064125  50.00797313657855  -50.64777049548884  37.666229814071066  120.000000
9.050751879699249  0.000000  0.000000  0.000000  -17.94752289633179  5.797413101918833  9.788884710912322  56.77202874279117  11.629568418891346  3.563553032755083  48.114652749113766  49.58314041283121  -51.428883657394486  37.60518690508785  120.000000
9.090977443609022  0.000000  0.000000  0.000000  -17.946467338814276  5.8415590428367095  9.519707321712914  56.4815054559108  11.763387443343344  3.5379092276840716  47.65603820315713  49.112170886880065  -52.37344934873562  37.57792979580222  120.000000
9.131203007518797  0.000000  0.000000  0.000000  -17.962624051273703  5.904701327665615  9.228893124281521  56.147379475374116  11.91845604283552  3.5200844837570036  47.124064911767405  48.590990541688235  -53.44315719396209  37.58707673807636  120.000000
9.17142857142857  0.000000  0.000000  0.000000  -17.995733917680738  5.98446063674168  8.918175068804747  55.77789794521793  12.089305449484444  3.5102351074033487  46.52242491341486  48.014611362034124  -54.58891813834875  37.63829658266948  120.000000
9.211654135338346  0.000000  0.000000  0.000000  -18.045090371617235  6.076630481039524  8.590519843760255  55.383114620373  12.270517961792798  3.5070842712060113  45.854235038601125  47.377146985350684  -55.7540702732444  37.73907626524452  120.000000
9.25187969924812  0.000000  0.000000  0.000000  -18.109439583064347  6.175061575331607  8.249740283614697  54.97454820077249  12.456385802647361  3.5076828672853235  45.12336537514306  46.67223653895514  -56.878388428348785  37.89766491487944  120.000000
9.292105263157895  0.000000  0.000000  0.000000  -18.187168329633288  6.272611834233226  7.9000512653778  54.564486728411865  12.640722672653279  3.507994908146202  44.33483905513959  45.89315364522249  -57.90067911610948  38.12113552451726  120.000000
9.332330827067668  0.000000  0.000000  0.000000  -18.276693533055912  6.361935398687962  7.545575973158258  54.16535030432079  12.817266964264986  3.503352588629788  43.49416830349268  45.03265716633554  -58.75938158503908  38.41567360222086  120.000000
9.372556390977444  0.000000  0.000000  0.000000  -18.376754763463055  6.435808548291492  7.190044887159484  53.789517516508624  12.98000875948231  3.488793289448296  42.60716367463714  44.08323627175752  -59.392475328002284  38.7881851172622  120.000000
9.412781954887217  0.000000  0.000000  0.000000  -18.48576632331334  6.487453111440982  6.83658232116381  53.44895753545661  13.123066028240649  3.459776586657121  41.6800722619542  43.0379000565922  -59.73816047599842  39.24611394307467  120.000000
9.453007518796992  0.000000  0.000000  0.000000  -18.60121037124327  6.51102190779552  6.4873354887318  53.15473879395302  13.24068607549517  3.4129027929532163  40.719249280529354  41.89086254971223  -59.73656177651289  39.79716261204528  120.000000
9.493233082706766  0.000000  0.000000  0.000000  -18.719910239545367  6.501958196612577  6.143194857277644  52.91641470422431  13.327460772609754  3.346335025916541  39.73075874532743  40.63840743218899  -59.332250774159284  40.448914643465464  120.000000
9.533458646616541  0.000000  0.000000  0.000000  -18.83873769194215  6.457226764276577  5.803859488318999  52.7415233112318  13.378705351717407  3.259922103241039  38.72037946532615  39.279879377678256  -58.47892108239703  41.207575402290516  120.000000
9.573684210526316  0.000000  0.000000  0.000000  -18.955121089554343  6.375209394058504  5.468121222034957  52.63510234648047  13.390935670411467  3.155070139378062  37.69423972898538  37.81860129838785  -57.145344540284405  42.07597006995815  120.000000
